<svg width="324" height="77" viewBox="0 0 324 77" fill="none" xmlns="http://www.w3.org/2000/svg">
<path d="M10.9822 11.9841V25.8493C10.9822 34.8742 28.4723 38.5005 37.4972 38.5005V38.5005C52.141 38.5005 64.0122 50.3723 64.0122 65.017V51.1518C64.0122 42.1269 46.5221 38.5005 37.4972 38.5005V38.5005C22.8534 38.5005 10.9822 26.6287 10.9822 11.9841Z" fill="black"/>
<path d="M10.9822 65.016L24.8446 65.016C33.8701 65.016 37.4972 47.5251 37.4972 38.4995V38.4995C37.4972 23.8549 49.3684 11.9831 64.0122 11.9831L50.1498 11.9831C41.1243 11.9831 37.4972 29.474 37.4972 38.4995V38.4995C37.4972 53.1442 25.626 65.016 10.9822 65.016Z" fill="black"/>
<path d="M37.4979 1.00009L27.695 10.8035C21.3133 17.1855 31.1162 32.118 37.4979 38.5V38.5C47.8526 48.8553 47.8526 65.6445 37.4979 75.9998L47.3008 66.1964C53.6824 59.8144 43.8795 44.8819 37.4979 38.5V38.5C27.1431 28.1447 27.1431 11.3554 37.4979 1.00009Z" fill="black"/>
<path d="M0.00418091 38.5L9.80708 48.3034C16.1887 54.6854 31.1204 44.882 37.5021 38.5V38.5C47.8568 28.1447 64.6452 28.1447 75 38.5L65.1971 28.6966C58.8154 22.3146 43.8837 32.1181 37.5021 38.5V38.5C27.1473 48.8553 10.3589 48.8553 0.00418091 38.5Z" fill="black"/>
<path d="M23.282 3.79929L17.9264 16.5879C14.4402 24.9124 29.1718 35.0141 37.4962 38.5005V38.5005C51.0033 44.1577 57.3672 59.694 51.7104 73.2018L57.066 60.4132C60.5522 52.0887 45.8206 41.987 37.4962 38.5005V38.5005C23.9891 32.8434 17.6252 17.3071 23.282 3.79929Z" fill="black"/>
<path d="M2.80026 52.7158L15.5868 58.0712C23.9117 61.5578 34.0133 46.8258 37.4997 38.5009V38.5009C43.1565 24.9931 58.692 18.6288 72.1991 24.286L59.4125 18.9306C51.0877 15.444 40.986 30.176 37.4997 38.5009V38.5009C31.8428 52.0087 16.3074 58.373 2.80026 52.7158Z" fill="black"/>
<path d="M51.9727 3.90771L39.1446 9.16285C30.7928 12.5843 34.0663 30.1447 37.4874 38.4967V38.4967C43.0384 52.0483 36.5531 67.5343 23.0022 73.0856L35.8303 67.8305C44.1821 64.4091 40.9085 46.8486 37.4874 38.4967V38.4967C31.9365 24.945 38.4217 9.45898 51.9727 3.90771Z" fill="black"/>
<path d="M2.90358 24.0158L8.15899 36.8459C11.5799 45.1975 29.1393 41.9231 37.4907 38.5019V38.5019C51.0417 32.9506 66.5269 39.4362 72.0778 52.9879L66.8224 40.1578C63.4015 31.8063 45.8421 35.0806 37.4907 38.5019V38.5019C23.9397 44.0531 8.45455 37.5675 2.90358 24.0158Z" fill="black"/>
<path d="M111.848 39C113.555 39 115.048 38.7973 116.328 38.392C117.608 37.9653 118.675 37.3787 119.528 36.632C120.381 35.8853 121.021 35 121.448 33.976C121.875 32.9307 122.088 31.7787 122.088 30.52C122.088 28.0027 121.256 26.0827 119.592 24.76C117.928 23.4373 115.411 22.776 112.04 22.776H105.96V39H111.848ZM133.544 63H126.856C125.533 63 124.573 62.488 123.976 61.464L113.224 45.944C112.861 45.4107 112.467 45.0267 112.04 44.792C111.613 44.5573 110.973 44.44 110.12 44.44H105.96V63H98.472V16.92H112.04C115.069 16.92 117.672 17.2293 119.848 17.848C122.045 18.4667 123.848 19.352 125.256 20.504C126.664 21.6347 127.699 23 128.36 24.6C129.043 26.2 129.384 27.9813 129.384 29.944C129.384 31.544 129.139 33.0373 128.648 34.424C128.179 35.8107 127.485 37.0693 126.568 38.2C125.672 39.3307 124.563 40.312 123.24 41.144C121.917 41.976 120.413 42.6267 118.728 43.096C119.645 43.6507 120.435 44.4293 121.096 45.432L133.544 63ZM157.1 43C157.1 41.848 156.929 40.7813 156.588 39.8C156.268 38.7973 155.788 37.9333 155.148 37.208C154.508 36.4613 153.708 35.8853 152.748 35.48C151.809 35.0533 150.721 34.84 149.484 34.84C146.988 34.84 145.025 35.5547 143.596 36.984C142.167 38.4133 141.26 40.4187 140.876 43H157.1ZM140.684 47.224C140.769 49.08 141.057 50.6907 141.548 52.056C142.039 53.4 142.689 54.52 143.5 55.416C144.332 56.312 145.313 56.984 146.444 57.432C147.596 57.8587 148.876 58.072 150.284 58.072C151.628 58.072 152.791 57.9227 153.772 57.624C154.753 57.304 155.607 56.9627 156.332 56.6C157.057 56.216 157.676 55.8747 158.188 55.576C158.7 55.256 159.169 55.096 159.596 55.096C160.151 55.096 160.577 55.3093 160.876 55.736L162.828 58.264C162.017 59.224 161.1 60.0347 160.076 60.696C159.052 61.3573 157.964 61.9013 156.812 62.328C155.66 62.7333 154.476 63.0213 153.26 63.192C152.044 63.384 150.86 63.48 149.708 63.48C147.447 63.48 145.345 63.1067 143.404 62.36C141.484 61.592 139.809 60.472 138.38 59C136.972 57.528 135.863 55.704 135.052 53.528C134.263 51.352 133.868 48.8453 133.868 46.008C133.868 43.7467 134.22 41.6347 134.924 39.672C135.649 37.7093 136.673 36.0027 137.996 34.552C139.34 33.1013 140.961 31.96 142.86 31.128C144.78 30.2747 146.945 29.848 149.356 29.848C151.361 29.848 153.217 30.1787 154.924 30.84C156.631 31.48 158.103 32.4293 159.34 33.688C160.577 34.9467 161.537 36.4933 162.22 38.328C162.924 40.1413 163.276 42.2107 163.276 44.536C163.276 45.6027 163.159 46.3173 162.924 46.68C162.689 47.0427 162.263 47.224 161.644 47.224H140.684ZM179.844 63.512C177.134 63.512 175.044 62.7547 173.572 61.24C172.121 59.704 171.396 57.5493 171.396 54.776V35.768H167.812C167.428 35.768 167.097 35.6507 166.82 35.416C166.542 35.16 166.404 34.7867 166.404 34.296V31.512L171.684 30.744L173.188 21.304C173.294 20.9413 173.476 20.6533 173.732 20.44C173.988 20.2053 174.329 20.088 174.756 20.088H178.276V30.808H187.332V35.768H178.276V54.296C178.276 55.4693 178.564 56.3653 179.14 56.984C179.716 57.6027 180.484 57.912 181.444 57.912C181.977 57.912 182.436 57.848 182.819 57.72C183.204 57.5707 183.534 57.4213 183.812 57.272C184.089 57.1013 184.324 56.952 184.516 56.824C184.729 56.6747 184.932 56.6 185.124 56.6C185.508 56.6 185.817 56.8133 186.052 57.24L188.1 60.6C187.033 61.5387 185.774 62.264 184.324 62.776C182.873 63.2667 181.38 63.512 179.844 63.512ZM210.195 48.728C207.741 48.8133 205.672 49.016 203.987 49.336C202.301 49.6347 200.936 50.0293 199.891 50.52C198.845 50.9893 198.088 51.5547 197.619 52.216C197.171 52.8773 196.947 53.6027 196.947 54.392C196.947 55.16 197.064 55.8213 197.299 56.376C197.555 56.9093 197.896 57.3573 198.323 57.72C198.771 58.0613 199.283 58.3173 199.859 58.488C200.456 58.6373 201.107 58.712 201.811 58.712C203.603 58.712 205.139 58.3813 206.419 57.72C207.72 57.0373 208.979 56.056 210.195 54.776V48.728ZM191.955 34.904C195.645 31.4693 200.04 29.752 205.139 29.752C207.016 29.752 208.68 30.0613 210.131 30.68C211.603 31.2773 212.829 32.1307 213.811 33.24C214.813 34.3493 215.571 35.672 216.083 37.208C216.616 38.7227 216.883 40.408 216.883 42.264V63H213.811C213.149 63 212.648 62.904 212.307 62.712C211.965 62.4987 211.677 62.0827 211.443 61.464L210.771 58.808C209.939 59.5547 209.117 60.2267 208.307 60.824C207.496 61.4 206.653 61.8907 205.779 62.296C204.925 62.7013 203.997 63 202.995 63.192C202.013 63.4053 200.925 63.512 199.731 63.512C198.408 63.512 197.171 63.3307 196.019 62.968C194.888 62.6053 193.907 62.0613 193.075 61.336C192.243 60.5893 191.581 59.672 191.091 58.584C190.621 57.496 190.387 56.216 190.387 54.744C190.387 53.4853 190.717 52.2587 191.379 51.064C192.061 49.8693 193.171 48.8027 194.707 47.864C196.264 46.904 198.301 46.1147 200.819 45.496C203.357 44.8773 206.483 44.5253 210.195 44.44V42.264C210.195 39.9173 209.693 38.168 208.691 37.016C207.688 35.864 206.216 35.288 204.275 35.288C202.952 35.288 201.843 35.4587 200.947 35.8C200.051 36.12 199.272 36.472 198.611 36.856C197.949 37.24 197.363 37.6027 196.851 37.944C196.339 38.264 195.795 38.424 195.219 38.424C194.749 38.424 194.344 38.3067 194.003 38.072C193.683 37.816 193.416 37.5067 193.203 37.144L191.955 34.904ZM232.11 30.36V63H225.23V30.36H232.11ZM233.262 20.504C233.262 21.1227 233.134 21.7093 232.878 22.264C232.643 22.8187 232.313 23.3093 231.886 23.736C231.459 24.1413 230.958 24.472 230.382 24.728C229.827 24.9627 229.23 25.08 228.59 25.08C227.971 25.08 227.385 24.9627 226.83 24.728C226.297 24.472 225.827 24.1413 225.422 23.736C225.017 23.3093 224.686 22.8187 224.43 22.264C224.195 21.7093 224.078 21.1227 224.078 20.504C224.078 19.864 224.195 19.2667 224.43 18.712C224.686 18.1573 225.017 17.6773 225.422 17.272C225.827 16.8453 226.297 16.5147 226.83 16.28C227.385 16.024 227.971 15.896 228.59 15.896C229.23 15.896 229.827 16.024 230.382 16.28C230.958 16.5147 231.459 16.8453 231.886 17.272C232.313 17.6773 232.643 18.1573 232.878 18.712C233.134 19.2667 233.262 19.864 233.262 20.504ZM247.763 15.64V63H240.883V15.64H247.763ZM263.423 30.36V63H256.543V30.36H263.423ZM264.575 20.504C264.575 21.1227 264.447 21.7093 264.191 22.264C263.956 22.8187 263.625 23.3093 263.199 23.736C262.772 24.1413 262.271 24.472 261.695 24.728C261.14 24.9627 260.543 25.08 259.903 25.08C259.284 25.08 258.697 24.9627 258.143 24.728C257.609 24.472 257.14 24.1413 256.735 23.736C256.329 23.3093 255.999 22.8187 255.743 22.264C255.508 21.7093 255.391 21.1227 255.391 20.504C255.391 19.864 255.508 19.2667 255.743 18.712C255.999 18.1573 256.329 17.6773 256.735 17.272C257.14 16.8453 257.609 16.5147 258.143 16.28C258.697 16.024 259.284 15.896 259.903 15.896C260.543 15.896 261.14 16.024 261.695 16.28C262.271 16.5147 262.772 16.8453 263.199 17.272C263.625 17.6773 263.956 18.1573 264.191 18.712C264.447 19.2667 264.575 19.864 264.575 20.504ZM274.275 63V35.832L271.075 35.384C270.542 35.2773 270.104 35.0853 269.763 34.808C269.443 34.5307 269.283 34.136 269.283 33.624V30.808H274.275V28.056C274.275 26.2 274.542 24.536 275.075 23.064C275.63 21.592 276.408 20.344 277.411 19.32C278.435 18.296 279.672 17.5173 281.123 16.984C282.574 16.4293 284.206 16.152 286.019 16.152C286.766 16.152 287.47 16.2053 288.131 16.312C288.814 16.4187 289.475 16.5787 290.115 16.792L289.987 20.248C289.944 20.824 289.656 21.1653 289.123 21.272C288.611 21.3787 287.96 21.432 287.171 21.432C286.211 21.432 285.347 21.5493 284.579 21.784C283.811 21.9973 283.15 22.3707 282.595 22.904C282.062 23.4373 281.646 24.1413 281.347 25.016C281.07 25.8907 280.931 26.9787 280.931 28.28V30.808H289.859V35.768H281.155V63H274.275ZM323.715 30.36L305.731 72.28C305.496 72.7707 305.208 73.1547 304.867 73.432C304.547 73.7093 304.045 73.848 303.363 73.848H298.275L304.291 60.792L290.979 30.36H296.963C297.539 30.36 297.976 30.4987 298.275 30.776C298.595 31.032 298.829 31.3413 298.979 31.704L306.755 50.232C306.947 50.7653 307.117 51.2987 307.267 51.832C307.437 52.344 307.597 52.8773 307.747 53.432C307.917 52.8773 308.088 52.3333 308.259 51.8C308.429 51.2667 308.621 50.7333 308.835 50.2L316.291 31.704C316.44 31.32 316.685 31 317.027 30.744C317.389 30.488 317.784 30.36 318.211 30.36H323.715Z" fill="black"/>
</svg>
