<svg width="300" height="300" viewBox="0 0 300 300" fill="none" xmlns="http://www.w3.org/2000/svg">
<path d="M175.909 232.553C152.046 223.419 127.5 222.014 105 228.337C89.3183 232.553 74.3183 240.984 60.682 251.522L51.1364 259.953L48.4091 262.764L54.5455 268.384C55.2273 268.384 55.2274 269.087 55.9092 269.789C57.2728 271.194 58.6365 271.897 60.682 273.302L64.7727 276.112L68.8637 272.6C69.5455 271.897 70.9091 270.492 72.2728 269.789C84.5455 259.251 98.1818 252.225 112.5 248.712C130.909 243.794 150.682 244.497 170.455 252.225C186.818 258.548 220.227 266.276 260.455 248.712L261.818 248.009L263.864 245.902C263.864 245.199 264.546 245.199 265.227 244.496C268.637 240.281 272.046 236.066 274.773 231.148L288.409 209.368L266.591 222.014C234.545 240.281 205.227 243.794 175.909 232.553Z" fill="#09090B"/>
<path d="M82.5 156.674C100.909 151.756 120.682 152.459 140.455 160.187C162.273 168.618 218.182 180.562 280.909 122.248L291.136 111.71L291.818 111.007L294.546 108.197L293.182 104.684C292.5 101.874 291.136 98.3607 289.773 94.8478L286.364 85.0116L279.545 92.0373C278.864 93.4425 277.5 94.1451 276.136 95.5502C246.136 127.166 199.773 159.485 146.591 139.813C122.727 130.679 98.1819 129.274 75.6819 135.597C53.8637 141.92 34.7727 153.864 17.0455 170.726V170.023L6.81818 181.265C6.81818 181.967 6.13649 181.967 5.45467 182.67L3.40909 184.777L4.09095 187.588C4.77277 191.101 6.13636 194.614 6.81818 198.126L10.9091 209.368L17.7273 200.234C18.4091 198.829 19.7727 198.127 20.4545 196.721C34.7727 183.372 54.5455 164.403 82.5 156.674Z" fill="#09090B"/>
<path d="M16.3638 144.028C32.0456 127.166 49.7728 116.628 68.8637 111.007C87.2728 106.089 107.046 106.792 126.818 114.52C188.182 137.705 241.364 99.7658 264.546 79.391L273.409 70.2576L276.818 67.4472L274.091 63.2319C272.046 61.1241 270.682 58.3138 268.637 55.5035L264.546 49.8828L259.773 54.8009C259.091 55.5034 257.727 56.9086 257.046 57.6111C228.409 85.7142 184.091 114.52 133.636 94.8478C109.773 85.7143 85.2274 84.3091 62.7274 90.6323C48.4092 94.8478 34.7728 101.873 21.1364 111.007L6.81818 122.951C5.45455 124.356 4.77273 125.059 3.40909 126.464L2.04558 127.869V129.977C1.36376 134.895 1.36368 139.813 0.68186 144.028L0 161.593L11.591 148.946C12.9546 147.541 14.3183 145.433 16.3638 144.028Z" fill="#09090B"/>
<path d="M195.682 280.328L194.318 284.543L195.682 280.328C193.636 279.625 192.273 278.923 190.227 278.22C166.364 269.087 141.818 267.682 119.318 274.005C114.545 275.41 109.773 276.815 105 278.923L88.6364 286.651L84.5456 288.759L98.182 293.677C102.273 295.082 106.364 296.487 110.455 297.892L112.5 298.595L114.546 297.892C116.591 297.19 118.636 295.784 120.682 295.784C122.046 295.784 123.409 295.082 124.773 294.379C141.136 290.164 158.864 290.164 177.955 296.487C180 297.19 181.364 297.892 183.409 298.595L186.818 300L188.864 299.297C193.636 297.892 199.091 296.487 203.182 294.379L222.273 287.354L202.5 282.436C200.455 281.733 197.727 281.031 195.682 280.328Z" fill="#09090B"/>
<path d="M300 134.895L289.773 145.433C288.409 146.838 287.046 148.244 285.682 149.649C257.727 177.049 212.727 206.557 162.273 186.885C138.409 177.752 113.864 176.347 91.3638 182.67C70.2274 188.993 51.1364 200.234 34.0909 217.096L25.2274 226.932L22.5001 230.445L25.2274 234.66C27.2728 237.471 28.6365 239.579 30.0002 242.389L34.0909 248.712L38.8637 242.389C39.5455 241.686 40.9091 240.281 41.5909 239.578C57.9546 221.311 75.6819 210.07 96.1364 204.45C114.545 199.532 134.318 200.234 154.091 207.962C171.136 214.286 188.864 216.394 206.591 214.286C237.955 210.773 269.318 192.506 292.5 172.131C293.864 170.726 295.227 170.023 296.591 168.618L298.637 166.51V164.403C298.637 160.187 299.318 155.269 299.318 151.054L300 134.895Z" fill="#09090B"/>
<path d="M40.9091 70.2576L38.8637 66.0421L40.9091 70.2576C45 68.1499 49.7729 66.7447 53.8638 65.3395C72.2729 60.4215 92.0456 61.1241 111.818 68.8524C124.773 73.7704 137.727 75.8782 152.046 75.8782C180.682 75.8782 209.318 65.3396 235.909 44.9648L246.136 36.5338L249.545 33.7236L243.409 28.8055C241.364 26.6977 238.636 24.5901 235.909 23.1849L231.818 20.3747L228.409 23.1849C227.045 23.8875 226.364 25.2926 225 25.9952C188.864 54.0983 152.727 61.8267 118.637 48.4777C94.0911 39.3442 69.5455 37.2365 45 44.9648C42.9546 45.6674 40.9091 46.3699 38.1819 47.0725L36.8183 47.7751L34.7728 49.8827C34.7728 50.5853 34.0911 50.5854 33.4093 51.288C30.682 55.5034 27.2728 59.0164 24.5455 63.2319L11.591 83.6065L32.7274 72.3653C36.1365 72.3653 38.8636 70.9602 40.9091 70.2576Z" fill="#09090B"/>
<path d="M96.8183 22.4823L98.8636 23.1849C107.727 26.6978 121.364 30.2107 138.409 30.2107C156.136 30.2107 173.182 25.9952 190.227 18.9694L211.364 8.43079L197.046 3.51288C192.955 2.10773 188.864 0.702576 184.091 0H182.046L180 0.702405C177.955 1.40498 175.909 2.81031 173.864 3.51288C153.409 11.2412 132.955 12.6464 113.182 7.02576C111.136 6.32319 109.091 5.62048 107.046 4.91791L105 4.21529L102.955 4.91791C98.8637 6.32306 94.7729 7.7283 90.6819 9.83603L75 16.8618L91.3638 21.7797C92.7274 21.0771 94.7728 21.7797 96.8183 22.4823Z" fill="#09090B"/>
</svg>
