<svg width="75" height="75" viewBox="0 0 75 75" fill="none" xmlns="http://www.w3.org/2000/svg">
<path d="M10.9822 10.984V24.8492C10.9822 33.8741 28.4723 37.5005 37.4972 37.5005V37.5005C52.141 37.5005 64.0122 49.3723 64.0122 64.0169V50.1517C64.0122 41.1268 46.5221 37.5005 37.4972 37.5005V37.5005C22.8534 37.5004 10.9822 25.6286 10.9822 10.984Z" fill="black"/>
<path d="M10.9822 64.0159L24.8446 64.0159C33.8701 64.0159 37.4972 46.525 37.4972 37.4995V37.4995C37.4972 22.8548 49.3684 10.983 64.0122 10.983L50.1498 10.983C41.1243 10.983 37.4972 28.4739 37.4972 37.4995V37.4995C37.4972 52.1441 25.626 64.0159 10.9822 64.0159Z" fill="black"/>
<path d="M37.4979 0L27.695 9.80342C21.3133 16.1854 31.1162 31.1179 37.4979 37.4999V37.4999C47.8526 47.8552 47.8526 64.6444 37.4979 74.9997L47.3008 65.1963C53.6824 58.8144 43.8795 43.8818 37.4979 37.4999V37.4999C27.1431 27.1446 27.1431 10.3553 37.4979 0Z" fill="black"/>
<path d="M0.00418472 37.4999L9.80708 47.3034C16.1887 53.6853 31.1204 43.8819 37.5021 37.4999V37.4999C47.8568 27.1446 64.6452 27.1446 75 37.4999L65.1971 27.6965C58.8154 21.3146 43.8837 31.118 37.5021 37.4999V37.4999C27.1473 47.8552 10.3589 47.8552 0.00418472 37.4999Z" fill="black"/>
<path d="M23.282 2.79919L17.9264 15.5878C14.4402 23.9123 29.1718 34.014 37.4962 37.5004V37.5004C51.0033 43.1576 57.3672 58.6939 51.7104 72.2017L57.066 59.4131C60.5522 51.0886 45.8206 40.9869 37.4962 37.5004V37.5004C23.9891 31.8433 17.6252 16.307 23.282 2.79919Z" fill="black"/>
<path d="M2.80026 51.7157L15.5868 57.0711C23.9117 60.5578 34.0133 45.8258 37.4997 37.5008V37.5008C43.1565 23.993 58.692 17.6288 72.1991 23.2859L59.4125 17.9305C51.0877 14.4439 40.986 29.1759 37.4997 37.5008V37.5008C31.8428 51.0086 16.3074 57.3729 2.80026 51.7157Z" fill="black"/>
<path d="M51.9727 2.90762L39.1446 8.16276C30.7928 11.5842 34.0663 29.1446 37.4874 37.4966V37.4966C43.0384 51.0482 36.5531 66.5342 23.0022 72.0855L35.8303 66.8304C44.1821 63.409 40.9085 45.8485 37.4874 37.4966V37.4966C31.9365 23.9449 38.4217 8.45889 51.9727 2.90762Z" fill="black"/>
<path d="M2.90358 23.0157L8.15899 35.8458C11.5799 44.1974 29.1393 40.923 37.4907 37.5018V37.5018C51.0417 31.9505 66.5269 38.4361 72.0778 51.9878L66.8224 39.1577C63.4015 30.8062 45.8421 34.0806 37.4907 37.5018V37.5018C23.9397 43.053 8.45455 36.5674 2.90358 23.0157Z" fill="black"/>
</svg>
