<svg width="1700" height="500" viewBox="0 0 1700 500" fill="none" xmlns="http://www.w3.org/2000/svg">
<rect width="1700" height="500" fill="white"/>
<path d="M515 250C515 282.032 489.034 308 457.005 308C424.975 308 399 282.032 399 250C399 243.75 399.984 237.722 401.823 232.085C427.547 232.029 449.343 215.228 456.875 192H457.135C464.666 215.228 486.462 232.029 512.186 232.085C514.006 237.722 515 243.74 515 250Z" fill="black"/>
<path d="M563.455 285V215.182H571.909V249.818H572.727L604.091 215.182H615.136L585.818 246.682L615.136 285H604.909L580.636 252.545L571.909 262.364V285H563.455ZM643.099 286.091C638.054 286.091 633.702 284.977 630.043 282.75C626.406 280.5 623.599 277.364 621.622 273.341C619.668 269.295 618.69 264.591 618.69 259.227C618.69 253.864 619.668 249.136 621.622 245.045C623.599 240.932 626.349 237.727 629.872 235.432C633.418 233.114 637.554 231.955 642.281 231.955C645.009 231.955 647.702 232.409 650.361 233.318C653.02 234.227 655.44 235.705 657.622 237.75C659.804 239.773 661.543 242.455 662.838 245.795C664.134 249.136 664.781 253.25 664.781 258.136V261.545H624.418V254.591H656.599C656.599 251.636 656.009 249 654.827 246.682C653.668 244.364 652.009 242.534 649.849 241.193C647.713 239.852 645.19 239.182 642.281 239.182C639.077 239.182 636.304 239.977 633.963 241.568C631.645 243.136 629.861 245.182 628.611 247.705C627.361 250.227 626.736 252.932 626.736 255.818V260.455C626.736 264.409 627.418 267.761 628.781 270.511C630.168 273.239 632.088 275.318 634.543 276.75C636.997 278.159 639.849 278.864 643.099 278.864C645.213 278.864 647.122 278.568 648.827 277.977C650.554 277.364 652.043 276.455 653.293 275.25C654.543 274.023 655.509 272.5 656.19 270.682L663.963 272.864C663.145 275.5 661.77 277.818 659.838 279.818C657.906 281.795 655.52 283.341 652.679 284.455C649.838 285.545 646.645 286.091 643.099 286.091ZM698.974 286.091C693.929 286.091 689.577 284.977 685.918 282.75C682.281 280.5 679.474 277.364 677.497 273.341C675.543 269.295 674.565 264.591 674.565 259.227C674.565 253.864 675.543 249.136 677.497 245.045C679.474 240.932 682.224 237.727 685.747 235.432C689.293 233.114 693.429 231.955 698.156 231.955C700.884 231.955 703.577 232.409 706.236 233.318C708.895 234.227 711.315 235.705 713.497 237.75C715.679 239.773 717.418 242.455 718.713 245.795C720.009 249.136 720.656 253.25 720.656 258.136V261.545H680.293V254.591H712.474C712.474 251.636 711.884 249 710.702 246.682C709.543 244.364 707.884 242.534 705.724 241.193C703.588 239.852 701.065 239.182 698.156 239.182C694.952 239.182 692.179 239.977 689.838 241.568C687.52 243.136 685.736 245.182 684.486 247.705C683.236 250.227 682.611 252.932 682.611 255.818V260.455C682.611 264.409 683.293 267.761 684.656 270.511C686.043 273.239 687.963 275.318 690.418 276.75C692.872 278.159 695.724 278.864 698.974 278.864C701.088 278.864 702.997 278.568 704.702 277.977C706.429 277.364 707.918 276.455 709.168 275.25C710.418 274.023 711.384 272.5 712.065 270.682L719.838 272.864C719.02 275.5 717.645 277.818 715.713 279.818C713.781 281.795 711.395 283.341 708.554 284.455C705.713 285.545 702.52 286.091 698.974 286.091ZM732.895 304.636V232.636H740.668V240.955H741.622C742.213 240.045 743.031 238.886 744.077 237.477C745.145 236.045 746.668 234.773 748.645 233.659C750.645 232.523 753.349 231.955 756.759 231.955C761.168 231.955 765.054 233.057 768.418 235.261C771.781 237.466 774.406 240.591 776.293 244.636C778.179 248.682 779.122 253.455 779.122 258.955C779.122 264.5 778.179 269.307 776.293 273.375C774.406 277.42 771.793 280.557 768.452 282.784C765.111 284.989 761.259 286.091 756.895 286.091C753.531 286.091 750.838 285.534 748.815 284.42C746.793 283.284 745.236 282 744.145 280.568C743.054 279.114 742.213 277.909 741.622 276.955H740.94V304.636H732.895ZM740.804 258.818C740.804 262.773 741.384 266.261 742.543 269.284C743.702 272.284 745.395 274.636 747.622 276.341C749.849 278.023 752.577 278.864 755.804 278.864C759.168 278.864 761.974 277.977 764.224 276.205C766.497 274.409 768.202 272 769.338 268.977C770.497 265.932 771.077 262.545 771.077 258.818C771.077 255.136 770.509 251.818 769.372 248.864C768.259 245.886 766.565 243.534 764.293 241.807C762.043 240.057 759.213 239.182 755.804 239.182C752.531 239.182 749.781 240.011 747.554 241.67C745.327 243.307 743.645 245.602 742.509 248.557C741.372 251.489 740.804 254.909 740.804 258.818ZM799.44 215.182V285H791.395V215.182H799.44ZM814.176 285V232.636H822.222V285H814.176ZM818.267 223.909C816.699 223.909 815.347 223.375 814.21 222.307C813.097 221.239 812.54 219.955 812.54 218.455C812.54 216.955 813.097 215.67 814.21 214.602C815.347 213.534 816.699 213 818.267 213C819.835 213 821.176 213.534 822.29 214.602C823.426 215.67 823.994 216.955 823.994 218.455C823.994 219.955 823.426 221.239 822.29 222.307C821.176 223.375 819.835 223.909 818.267 223.909ZM858.23 286.091C853.321 286.091 849.094 284.932 845.548 282.614C842.003 280.295 839.276 277.102 837.366 273.034C835.457 268.966 834.503 264.318 834.503 259.091C834.503 253.773 835.48 249.08 837.435 245.011C839.412 240.92 842.162 237.727 845.685 235.432C849.23 233.114 853.366 231.955 858.094 231.955C861.776 231.955 865.094 232.636 868.048 234C871.003 235.364 873.423 237.273 875.31 239.727C877.196 242.182 878.366 245.045 878.821 248.318H870.776C870.162 245.932 868.798 243.818 866.685 241.977C864.594 240.114 861.776 239.182 858.23 239.182C855.094 239.182 852.344 240 849.98 241.636C847.639 243.25 845.81 245.534 844.491 248.489C843.196 251.42 842.548 254.864 842.548 258.818C842.548 262.864 843.185 266.386 844.457 269.386C845.753 272.386 847.571 274.716 849.912 276.375C852.276 278.034 855.048 278.864 858.23 278.864C860.321 278.864 862.219 278.5 863.923 277.773C865.628 277.045 867.071 276 868.253 274.636C869.435 273.273 870.276 271.636 870.776 269.727H878.821C878.366 272.818 877.241 275.602 875.446 278.08C873.673 280.534 871.321 282.489 868.389 283.943C865.48 285.375 862.094 286.091 858.23 286.091ZM890.582 285V232.636H898.628V285H890.582ZM894.673 223.909C893.105 223.909 891.753 223.375 890.616 222.307C889.503 221.239 888.946 219.955 888.946 218.455C888.946 216.955 889.503 215.67 890.616 214.602C891.753 213.534 893.105 213 894.673 213C896.241 213 897.582 213.534 898.696 214.602C899.832 215.67 900.401 216.955 900.401 218.455C900.401 219.955 899.832 221.239 898.696 222.307C897.582 223.375 896.241 223.909 894.673 223.909ZM936.136 232.636V239.455H909V232.636H936.136ZM916.909 220.091H924.955V270C924.955 272.273 925.284 273.977 925.943 275.114C926.625 276.227 927.489 276.977 928.534 277.364C929.602 277.727 930.727 277.909 931.909 277.909C932.795 277.909 933.523 277.864 934.091 277.773C934.659 277.659 935.114 277.568 935.455 277.5L937.091 284.727C936.545 284.932 935.784 285.136 934.807 285.341C933.83 285.568 932.591 285.682 931.091 285.682C928.818 285.682 926.591 285.193 924.409 284.216C922.25 283.239 920.455 281.75 919.023 279.75C917.614 277.75 916.909 275.227 916.909 272.182V220.091ZM953.42 304.636C952.057 304.636 950.841 304.523 949.773 304.295C948.705 304.091 947.966 303.886 947.557 303.682L949.602 296.591C951.557 297.091 953.284 297.273 954.784 297.136C956.284 297 957.614 296.33 958.773 295.125C959.955 293.943 961.034 292.023 962.011 289.364L963.511 285.273L944.148 232.636H952.875L967.33 274.364H967.875L982.33 232.636H991.057L968.83 292.636C967.83 295.341 966.591 297.58 965.114 299.352C963.636 301.148 961.92 302.477 959.966 303.341C958.034 304.205 955.852 304.636 953.42 304.636ZM1053.36 211.909L1030.86 295.5H1023.49L1045.99 211.909H1053.36ZM1147.17 237H1138.71C1138.21 234.568 1137.34 232.432 1136.09 230.591C1134.86 228.75 1133.36 227.205 1131.59 225.955C1129.84 224.682 1127.89 223.727 1125.76 223.091C1123.62 222.455 1121.39 222.136 1119.08 222.136C1114.85 222.136 1111.02 223.205 1107.59 225.341C1104.18 227.477 1101.46 230.625 1099.44 234.784C1097.44 238.943 1096.44 244.045 1096.44 250.091C1096.44 256.136 1097.44 261.239 1099.44 265.398C1101.46 269.557 1104.18 272.705 1107.59 274.841C1111.02 276.977 1114.85 278.045 1119.08 278.045C1121.39 278.045 1123.62 277.727 1125.76 277.091C1127.89 276.455 1129.84 275.511 1131.59 274.261C1133.36 272.989 1134.86 271.432 1136.09 269.591C1137.34 267.727 1138.21 265.591 1138.71 263.182H1147.17C1146.53 266.75 1145.37 269.943 1143.69 272.761C1142.01 275.58 1139.92 277.977 1137.42 279.955C1134.92 281.909 1132.11 283.398 1129 284.42C1125.91 285.443 1122.6 285.955 1119.08 285.955C1113.12 285.955 1107.83 284.5 1103.19 281.591C1098.55 278.682 1094.91 274.545 1092.25 269.182C1089.59 263.818 1088.26 257.455 1088.26 250.091C1088.26 242.727 1089.59 236.364 1092.25 231C1094.91 225.636 1098.55 221.5 1103.19 218.591C1107.83 215.682 1113.12 214.227 1119.08 214.227C1122.6 214.227 1125.91 214.739 1129 215.761C1132.11 216.784 1134.92 218.284 1137.42 220.261C1139.92 222.216 1142.01 224.602 1143.69 227.42C1145.37 230.216 1146.53 233.409 1147.17 237ZM1181.01 286.091C1176.28 286.091 1172.14 284.966 1168.57 282.716C1165.02 280.466 1162.25 277.318 1160.25 273.273C1158.27 269.227 1157.28 264.5 1157.28 259.091C1157.28 253.636 1158.27 248.875 1160.25 244.807C1162.25 240.739 1165.02 237.58 1168.57 235.33C1172.14 233.08 1176.28 231.955 1181.01 231.955C1185.74 231.955 1189.88 233.08 1193.42 235.33C1196.99 237.58 1199.76 240.739 1201.74 244.807C1203.74 248.875 1204.74 253.636 1204.74 259.091C1204.74 264.5 1203.74 269.227 1201.74 273.273C1199.76 277.318 1196.99 280.466 1193.42 282.716C1189.88 284.966 1185.74 286.091 1181.01 286.091ZM1181.01 278.864C1184.6 278.864 1187.56 277.943 1189.88 276.102C1192.19 274.261 1193.91 271.841 1195.02 268.841C1196.14 265.841 1196.69 262.591 1196.69 259.091C1196.69 255.591 1196.14 252.33 1195.02 249.307C1193.91 246.284 1192.19 243.841 1189.88 241.977C1187.56 240.114 1184.6 239.182 1181.01 239.182C1177.42 239.182 1174.47 240.114 1172.15 241.977C1169.83 243.841 1168.11 246.284 1167 249.307C1165.89 252.33 1165.33 255.591 1165.33 259.091C1165.33 262.591 1165.89 265.841 1167 268.841C1168.11 271.841 1169.83 274.261 1172.15 276.102C1174.47 277.943 1177.42 278.864 1181.01 278.864ZM1217.02 285V232.636H1224.79V240.545H1225.34C1226.29 237.955 1228.02 235.852 1230.52 234.239C1233.02 232.625 1235.84 231.818 1238.97 231.818C1239.57 231.818 1240.3 231.83 1241.19 231.852C1242.08 231.875 1242.75 231.909 1243.2 231.955V240.136C1242.93 240.068 1242.3 239.966 1241.33 239.83C1240.37 239.67 1239.36 239.591 1238.29 239.591C1235.75 239.591 1233.47 240.125 1231.47 241.193C1229.5 242.239 1227.93 243.693 1226.77 245.557C1225.63 247.398 1225.07 249.5 1225.07 251.864V285H1217.02ZM1273.1 286.091C1268.05 286.091 1263.7 284.977 1260.04 282.75C1256.41 280.5 1253.6 277.364 1251.62 273.341C1249.67 269.295 1248.69 264.591 1248.69 259.227C1248.69 253.864 1249.67 249.136 1251.62 245.045C1253.6 240.932 1256.35 237.727 1259.87 235.432C1263.42 233.114 1267.55 231.955 1272.28 231.955C1275.01 231.955 1277.7 232.409 1280.36 233.318C1283.02 234.227 1285.44 235.705 1287.62 237.75C1289.8 239.773 1291.54 242.455 1292.84 245.795C1294.13 249.136 1294.78 253.25 1294.78 258.136V261.545H1254.42V254.591H1286.6C1286.6 251.636 1286.01 249 1284.83 246.682C1283.67 244.364 1282.01 242.534 1279.85 241.193C1277.71 239.852 1275.19 239.182 1272.28 239.182C1269.08 239.182 1266.3 239.977 1263.96 241.568C1261.64 243.136 1259.86 245.182 1258.61 247.705C1257.36 250.227 1256.74 252.932 1256.74 255.818V260.455C1256.74 264.409 1257.42 267.761 1258.78 270.511C1260.17 273.239 1262.09 275.318 1264.54 276.75C1267 278.159 1269.85 278.864 1273.1 278.864C1275.21 278.864 1277.12 278.568 1278.83 277.977C1280.55 277.364 1282.04 276.455 1283.29 275.25C1284.54 274.023 1285.51 272.5 1286.19 270.682L1293.96 272.864C1293.14 275.5 1291.77 277.818 1289.84 279.818C1287.91 281.795 1285.52 283.341 1282.68 284.455C1279.84 285.545 1276.64 286.091 1273.1 286.091Z" fill="black"/>
</svg>
