<svg width="103" height="24" viewBox="0 0 103 24" fill="none" xmlns="http://www.w3.org/2000/svg">
<g clip-path="url(#clip0_3_85)">
<rect width="24" height="24" rx="5" fill="#0969FF"/>
<g filter="url(#filter0_d_3_85)">
<path d="M4 8L8 4" stroke="white" stroke-width="2" stroke-linecap="round" stroke-linejoin="round" shape-rendering="crispEdges"/>
</g>
<g filter="url(#filter1_d_3_85)">
<path d="M14 4L4 14" stroke="white" stroke-width="2" stroke-linecap="round" stroke-linejoin="round" shape-rendering="crispEdges"/>
</g>
<g filter="url(#filter2_d_3_85)">
<path d="M4 20L20 4" stroke="white" stroke-width="2" stroke-linecap="round" stroke-linejoin="round" shape-rendering="crispEdges"/>
</g>
<g filter="url(#filter3_d_3_85)">
<path d="M20 10L10 20" stroke="white" stroke-width="2" stroke-linecap="round" stroke-linejoin="round" shape-rendering="crispEdges"/>
</g>
<g filter="url(#filter4_d_3_85)">
<path d="M20 16L16 20" stroke="white" stroke-width="2" stroke-linecap="round" stroke-linejoin="round" shape-rendering="crispEdges"/>
</g>
</g>
<path d="M35.89 12.5C36.4233 12.5 36.89 12.4367 37.29 12.31C37.69 12.1767 38.0233 11.9933 38.29 11.76C38.5567 11.5267 38.7567 11.25 38.89 10.93C39.0233 10.6033 39.09 10.2433 39.09 9.85C39.09 9.06333 38.83 8.46333 38.31 8.05C37.79 7.63667 37.0033 7.43 35.95 7.43H34.05V12.5H35.89ZM42.67 20H40.58C40.1667 20 39.8667 19.84 39.68 19.52L36.32 14.67C36.2067 14.5033 36.0833 14.3833 35.95 14.31C35.8167 14.2367 35.6167 14.2 35.35 14.2H34.05V20H31.71V5.6H35.95C36.8967 5.6 37.71 5.69667 38.39 5.89C39.0767 6.08333 39.64 6.36 40.08 6.72C40.52 7.07333 40.8433 7.5 41.05 8C41.2633 8.5 41.37 9.05667 41.37 9.67C41.37 10.17 41.2933 10.6367 41.14 11.07C40.9933 11.5033 40.7767 11.8967 40.49 12.25C40.21 12.6033 39.8633 12.91 39.45 13.17C39.0367 13.43 38.5667 13.6333 38.04 13.78C38.3267 13.9533 38.5733 14.1967 38.78 14.51L42.67 20ZM50.0313 13.75C50.0313 13.39 49.9779 13.0567 49.8713 12.75C49.7713 12.4367 49.6213 12.1667 49.4213 11.94C49.2213 11.7067 48.9713 11.5267 48.6713 11.4C48.3779 11.2667 48.0379 11.2 47.6513 11.2C46.8713 11.2 46.2579 11.4233 45.8113 11.87C45.3646 12.3167 45.0813 12.9433 44.9613 13.75H50.0313ZM44.9013 15.07C44.9279 15.65 45.0179 16.1533 45.1713 16.58C45.3246 17 45.5279 17.35 45.7813 17.63C46.0413 17.91 46.3479 18.12 46.7013 18.26C47.0613 18.3933 47.4613 18.46 47.9013 18.46C48.3213 18.46 48.6846 18.4133 48.9913 18.32C49.2979 18.22 49.5646 18.1133 49.7913 18C50.0179 17.88 50.2113 17.7733 50.3713 17.68C50.5313 17.58 50.6779 17.53 50.8113 17.53C50.9846 17.53 51.1179 17.5967 51.2113 17.73L51.8213 18.52C51.5679 18.82 51.2813 19.0733 50.9613 19.28C50.6413 19.4867 50.3013 19.6567 49.9413 19.79C49.5813 19.9167 49.2113 20.0067 48.8313 20.06C48.4513 20.12 48.0813 20.15 47.7213 20.15C47.0146 20.15 46.3579 20.0333 45.7513 19.8C45.1513 19.56 44.6279 19.21 44.1813 18.75C43.7413 18.29 43.3946 17.72 43.1413 17.04C42.8946 16.36 42.7713 15.5767 42.7713 14.69C42.7713 13.9833 42.8813 13.3233 43.1013 12.71C43.3279 12.0967 43.6479 11.5633 44.0613 11.11C44.4813 10.6567 44.9879 10.3 45.5813 10.04C46.1813 9.77333 46.8579 9.64 47.6113 9.64C48.2379 9.64 48.8179 9.74333 49.3513 9.95C49.8846 10.15 50.3446 10.4467 50.7313 10.84C51.1179 11.2333 51.4179 11.7167 51.6313 12.29C51.8513 12.8567 51.9613 13.5033 51.9613 14.23C51.9613 14.5633 51.9246 14.7867 51.8513 14.9C51.7779 15.0133 51.6446 15.07 51.4513 15.07H44.9013ZM57.1386 20.16C56.2919 20.16 55.6386 19.9233 55.1786 19.45C54.7253 18.97 54.4986 18.2967 54.4986 17.43V11.49H53.3786C53.2586 11.49 53.1553 11.4533 53.0686 11.38C52.9819 11.3 52.9386 11.1833 52.9386 11.03V10.16L54.5886 9.92L55.0586 6.97C55.0919 6.85667 55.1486 6.76667 55.2286 6.7C55.3086 6.62667 55.4153 6.59 55.5486 6.59H56.6486V9.94H59.4786V11.49H56.6486V17.28C56.6486 17.6467 56.7386 17.9267 56.9186 18.12C57.0986 18.3133 57.3386 18.41 57.6386 18.41C57.8053 18.41 57.9486 18.39 58.0686 18.35C58.1886 18.3033 58.2919 18.2567 58.3786 18.21C58.4653 18.1567 58.5386 18.11 58.5986 18.07C58.6653 18.0233 58.7286 18 58.7886 18C58.9086 18 59.0053 18.0667 59.0786 18.2L59.7186 19.25C59.3853 19.5433 58.9919 19.77 58.5386 19.93C58.0853 20.0833 57.6186 20.16 57.1386 20.16ZM66.6233 15.54C65.8566 15.5667 65.2099 15.63 64.6833 15.73C64.1566 15.8233 63.7299 15.9467 63.4033 16.1C63.0766 16.2467 62.8399 16.4233 62.6933 16.63C62.5533 16.8367 62.4833 17.0633 62.4833 17.31C62.4833 17.55 62.5199 17.7567 62.5933 17.93C62.6733 18.0967 62.7799 18.2367 62.9133 18.35C63.0533 18.4567 63.2133 18.5367 63.3933 18.59C63.5799 18.6367 63.7833 18.66 64.0033 18.66C64.5633 18.66 65.0433 18.5567 65.4433 18.35C65.8499 18.1367 66.2433 17.83 66.6233 17.43V15.54ZM60.9233 11.22C62.0766 10.1467 63.4499 9.61 65.0433 9.61C65.6299 9.61 66.1499 9.70667 66.6033 9.9C67.0633 10.0867 67.4466 10.3533 67.7533 10.7C68.0666 11.0467 68.3033 11.46 68.4633 11.94C68.6299 12.4133 68.7133 12.94 68.7133 13.52V20H67.7533C67.5466 20 67.3899 19.97 67.2833 19.91C67.1766 19.8433 67.0866 19.7133 67.0133 19.52L66.8033 18.69C66.5433 18.9233 66.2866 19.1333 66.0333 19.32C65.7799 19.5 65.5166 19.6533 65.2433 19.78C64.9766 19.9067 64.6866 20 64.3733 20.06C64.0666 20.1267 63.7266 20.16 63.3533 20.16C62.9399 20.16 62.5533 20.1033 62.1933 19.99C61.8399 19.8767 61.5333 19.7067 61.2733 19.48C61.0133 19.2467 60.8066 18.96 60.6533 18.62C60.5066 18.28 60.4333 17.88 60.4333 17.42C60.4333 17.0267 60.5366 16.6433 60.7433 16.27C60.9566 15.8967 61.3033 15.5633 61.7833 15.27C62.2699 14.97 62.9066 14.7233 63.6933 14.53C64.4866 14.3367 65.4633 14.2267 66.6233 14.2V13.52C66.6233 12.7867 66.4666 12.24 66.1533 11.88C65.8399 11.52 65.3799 11.34 64.7733 11.34C64.3599 11.34 64.0133 11.3933 63.7333 11.5C63.4533 11.6 63.2099 11.71 63.0033 11.83C62.7966 11.95 62.6133 12.0633 62.4533 12.17C62.2933 12.27 62.1233 12.32 61.9433 12.32C61.7966 12.32 61.6699 12.2833 61.5633 12.21C61.4633 12.13 61.3799 12.0333 61.3133 11.92L60.9233 11.22ZM73.4719 9.8V20H71.3219V9.8H73.4719ZM73.8319 6.72C73.8319 6.91333 73.7919 7.09667 73.7119 7.27C73.6385 7.44333 73.5352 7.59667 73.4019 7.73C73.2685 7.85667 73.1119 7.96 72.9319 8.04C72.7585 8.11333 72.5719 8.15 72.3719 8.15C72.1785 8.15 71.9952 8.11333 71.8219 8.04C71.6552 7.96 71.5085 7.85667 71.3819 7.73C71.2552 7.59667 71.1519 7.44333 71.0719 7.27C70.9985 7.09667 70.9619 6.91333 70.9619 6.72C70.9619 6.52 70.9985 6.33333 71.0719 6.16C71.1519 5.98667 71.2552 5.83667 71.3819 5.71C71.5085 5.57667 71.6552 5.47333 71.8219 5.4C71.9952 5.32 72.1785 5.28 72.3719 5.28C72.5719 5.28 72.7585 5.32 72.9319 5.4C73.1119 5.47333 73.2685 5.57667 73.4019 5.71C73.5352 5.83667 73.6385 5.98667 73.7119 6.16C73.7919 6.33333 73.8319 6.52 73.8319 6.72ZM78.3633 5.2V20H76.2133V5.2H78.3633ZM83.257 9.8V20H81.107V9.8H83.257ZM83.617 6.72C83.617 6.91333 83.577 7.09667 83.497 7.27C83.4237 7.44333 83.3204 7.59667 83.187 7.73C83.0537 7.85667 82.897 7.96 82.717 8.04C82.5437 8.11333 82.357 8.15 82.157 8.15C81.9637 8.15 81.7804 8.11333 81.607 8.04C81.4404 7.96 81.2937 7.85667 81.167 7.73C81.0404 7.59667 80.937 7.44333 80.857 7.27C80.7837 7.09667 80.747 6.91333 80.747 6.72C80.747 6.52 80.7837 6.33333 80.857 6.16C80.937 5.98667 81.0404 5.83667 81.167 5.71C81.2937 5.57667 81.4404 5.47333 81.607 5.4C81.7804 5.32 81.9637 5.28 82.157 5.28C82.357 5.28 82.5437 5.32 82.717 5.4C82.897 5.47333 83.0537 5.57667 83.187 5.71C83.3204 5.83667 83.4237 5.98667 83.497 6.16C83.577 6.33333 83.617 6.52 83.617 6.72ZM86.6484 20V11.51L85.6484 11.37C85.4818 11.3367 85.3451 11.2767 85.2384 11.19C85.1384 11.1033 85.0884 10.98 85.0884 10.82V9.94H86.6484V9.08C86.6484 8.5 86.7318 7.98 86.8984 7.52C87.0718 7.06 87.3151 6.67 87.6284 6.35C87.9484 6.03 88.3351 5.78667 88.7884 5.62C89.2418 5.44667 89.7518 5.36 90.3184 5.36C90.5518 5.36 90.7718 5.37667 90.9784 5.41C91.1918 5.44333 91.3984 5.49333 91.5984 5.56L91.5584 6.64C91.5451 6.82 91.4551 6.92667 91.2884 6.96C91.1284 6.99333 90.9251 7.01 90.6784 7.01C90.3784 7.01 90.1084 7.04667 89.8684 7.12C89.6284 7.18667 89.4218 7.30333 89.2484 7.47C89.0818 7.63667 88.9518 7.85667 88.8584 8.13C88.7718 8.40333 88.7284 8.74333 88.7284 9.15V9.94H91.5184V11.49H88.7984V20H86.6484ZM102.098 9.8L96.4783 22.9C96.4049 23.0533 96.3149 23.1733 96.2083 23.26C96.1083 23.3467 95.9516 23.39 95.7383 23.39H94.1483L96.0283 19.31L91.8683 9.8H93.7383C93.9183 9.8 94.0549 9.84333 94.1483 9.93C94.2483 10.01 94.3216 10.1067 94.3683 10.22L96.7983 16.01C96.8583 16.1767 96.9116 16.3433 96.9583 16.51C97.0116 16.67 97.0616 16.8367 97.1083 17.01C97.1616 16.8367 97.2149 16.6667 97.2683 16.5C97.3216 16.3333 97.3816 16.1667 97.4483 16L99.7783 10.22C99.8249 10.1 99.9016 10 100.008 9.92C100.122 9.84 100.245 9.8 100.378 9.8H102.098Z" fill="black"/>
<defs>
<filter id="filter0_d_3_85" x="2" y="2.5" width="8" height="8" filterUnits="userSpaceOnUse" color-interpolation-filters="sRGB">
<feFlood flood-opacity="0" result="BackgroundImageFix"/>
<feColorMatrix in="SourceAlpha" type="matrix" values="0 0 0 0 0 0 0 0 0 0 0 0 0 0 0 0 0 0 127 0" result="hardAlpha"/>
<feOffset dy="0.5"/>
<feGaussianBlur stdDeviation="0.5"/>
<feComposite in2="hardAlpha" operator="out"/>
<feColorMatrix type="matrix" values="0 0 0 0 0 0 0 0 0 0 0 0 0 0 0 0 0 0 0.25 0"/>
<feBlend mode="normal" in2="BackgroundImageFix" result="effect1_dropShadow_3_85"/>
<feBlend mode="normal" in="SourceGraphic" in2="effect1_dropShadow_3_85" result="shape"/>
</filter>
<filter id="filter1_d_3_85" x="2" y="2.5" width="14" height="14" filterUnits="userSpaceOnUse" color-interpolation-filters="sRGB">
<feFlood flood-opacity="0" result="BackgroundImageFix"/>
<feColorMatrix in="SourceAlpha" type="matrix" values="0 0 0 0 0 0 0 0 0 0 0 0 0 0 0 0 0 0 127 0" result="hardAlpha"/>
<feOffset dy="0.5"/>
<feGaussianBlur stdDeviation="0.5"/>
<feComposite in2="hardAlpha" operator="out"/>
<feColorMatrix type="matrix" values="0 0 0 0 0 0 0 0 0 0 0 0 0 0 0 0 0 0 0.25 0"/>
<feBlend mode="normal" in2="BackgroundImageFix" result="effect1_dropShadow_3_85"/>
<feBlend mode="normal" in="SourceGraphic" in2="effect1_dropShadow_3_85" result="shape"/>
</filter>
<filter id="filter2_d_3_85" x="2" y="2.5" width="20" height="20" filterUnits="userSpaceOnUse" color-interpolation-filters="sRGB">
<feFlood flood-opacity="0" result="BackgroundImageFix"/>
<feColorMatrix in="SourceAlpha" type="matrix" values="0 0 0 0 0 0 0 0 0 0 0 0 0 0 0 0 0 0 127 0" result="hardAlpha"/>
<feOffset dy="0.5"/>
<feGaussianBlur stdDeviation="0.5"/>
<feComposite in2="hardAlpha" operator="out"/>
<feColorMatrix type="matrix" values="0 0 0 0 0 0 0 0 0 0 0 0 0 0 0 0 0 0 0.25 0"/>
<feBlend mode="normal" in2="BackgroundImageFix" result="effect1_dropShadow_3_85"/>
<feBlend mode="normal" in="SourceGraphic" in2="effect1_dropShadow_3_85" result="shape"/>
</filter>
<filter id="filter3_d_3_85" x="8" y="8.5" width="14" height="14" filterUnits="userSpaceOnUse" color-interpolation-filters="sRGB">
<feFlood flood-opacity="0" result="BackgroundImageFix"/>
<feColorMatrix in="SourceAlpha" type="matrix" values="0 0 0 0 0 0 0 0 0 0 0 0 0 0 0 0 0 0 127 0" result="hardAlpha"/>
<feOffset dy="0.5"/>
<feGaussianBlur stdDeviation="0.5"/>
<feComposite in2="hardAlpha" operator="out"/>
<feColorMatrix type="matrix" values="0 0 0 0 0 0 0 0 0 0 0 0 0 0 0 0 0 0 0.25 0"/>
<feBlend mode="normal" in2="BackgroundImageFix" result="effect1_dropShadow_3_85"/>
<feBlend mode="normal" in="SourceGraphic" in2="effect1_dropShadow_3_85" result="shape"/>
</filter>
<filter id="filter4_d_3_85" x="14" y="14.5" width="8" height="8" filterUnits="userSpaceOnUse" color-interpolation-filters="sRGB">
<feFlood flood-opacity="0" result="BackgroundImageFix"/>
<feColorMatrix in="SourceAlpha" type="matrix" values="0 0 0 0 0 0 0 0 0 0 0 0 0 0 0 0 0 0 127 0" result="hardAlpha"/>
<feOffset dy="0.5"/>
<feGaussianBlur stdDeviation="0.5"/>
<feComposite in2="hardAlpha" operator="out"/>
<feColorMatrix type="matrix" values="0 0 0 0 0 0 0 0 0 0 0 0 0 0 0 0 0 0 0.25 0"/>
<feBlend mode="normal" in2="BackgroundImageFix" result="effect1_dropShadow_3_85"/>
<feBlend mode="normal" in="SourceGraphic" in2="effect1_dropShadow_3_85" result="shape"/>
</filter>
<clipPath id="clip0_3_85">
<rect width="24" height="24" rx="5" fill="white"/>
</clipPath>
</defs>
</svg>
